<svg height="58pt" viewBox="-2 0 58 58" width="58pt" xmlns="http://www.w3.org/2000/svg"><path d="m46 45.460938c-.609375.351562-1.296875.539062-2 .539062-.152344 0-.308594-.007812-.460938-.03125h-.007812c-.242188-.027344-.480469-.082031-.714844-.15625-.0625-.015625-.121094-.039062-.183594-.0625-.21875-.078125-.429687-.175781-.632812-.289062v3.539062h4zm0 0" fill="#f1cfa2"/><path d="m42.816406 45.8125c.234375.074219.472656.128906.714844.15625.15625.019531.3125.03125.46875.03125.703125 0 1.390625-.1875 2-.539062.300781-.175782.582031-.386719.828125-.632813.75-.75 1.171875-1.765625 1.171875-2.828125v-3c0-.035156 0-.066406-.011719-.101562-.042969.011718-.089843.019531-.136719.023437-.28125.054687-.566406.082031-.851562.078125-1.082031.003906-2.136719-.347656-3-1-.945312 1.257812-2.425781 2-4 2v2c-.003906 1.429688.761719 2.75 2 3.460938.203125.113281.414062.210937.632812.285156.058594.023437.121094.046875.183594.066406zm0 0" fill="#ffdaaa"/><path d="m44.878906 36.101562c-.152344.6875-.453125 1.335938-.878906 1.898438.863281.652344 1.917969 1.003906 3 1 .285156.003906.570312-.023438.851562-.078125.046876-.003906.09375-.011719.136719-.023437-.019531-1.289063-.539062-2.523438-1.449219-3.4375-.445312-.441407-.964843-.796876-1.539062-1.050782v.589844c0 .371094-.039062.738281-.121094 1.101562zm0 0" fill="#ffc477"/><path d="m44 38c.425781-.5625.726562-1.210938.878906-1.898438.082032-.363281.121094-.730468.121094-1.101562v-.589844c-.632812-.269531-1.3125-.410156-2-.410156-.332031-.003906-.664062.03125-.988281.101562-2.335938.46875-4.011719 2.519532-4.011719 4.898438v.589844c.632812.269531 1.3125.410156 2 .410156 1.574219 0 3.054688-.742188 4-2zm0 0" fill="#ffb655"/><path d="m29 41.460938c-.609375.351562-1.296875.539062-2 .539062-.152344 0-.308594-.007812-.460938-.03125h-.007812c-.242188-.027344-.480469-.082031-.714844-.15625-.0625-.015625-.121094-.039062-.183594-.0625-.21875-.078125-.429687-.175781-.632812-.289062v3.539062h4zm0 0" fill="#f1cfa2"/><path d="m25.816406 41.8125c.234375.074219.472656.128906.714844.15625.15625.019531.3125.03125.46875.03125.703125 0 1.390625-.1875 2-.539062.300781-.175782.582031-.386719.828125-.632813.75-.75 1.171875-1.765625 1.171875-2.828125v-3c0-.035156 0-.066406-.011719-.101562-.042969.011718-.089843.019531-.136719.023437-.28125.054687-.566406.082031-.851562.078125-1.082031.003906-2.136719-.347656-3-1-.945312 1.257812-2.425781 2-4 2v2c-.003906 1.429688.761719 2.75 2 3.460938.203125.113281.414062.210937.632812.285156.058594.023437.121094.046875.183594.066406zm0 0" fill="#ffdaaa"/><path d="m27.878906 32.101562c-.152344.6875-.453125 1.335938-.878906 1.898438.863281.652344 1.917969 1.003906 3 1 .285156.003906.570312-.023438.851562-.078125.046876-.003906.09375-.011719.136719-.023437-.019531-1.289063-.539062-2.523438-1.449219-3.4375-.445312-.441407-.964843-.796876-1.539062-1.050782v.589844c0 .371094-.039062.738281-.121094 1.101562zm0 0" fill="#ff6243"/><path d="m27 34c.425781-.5625.726562-1.210938.878906-1.898438.082032-.363281.121094-.730468.121094-1.101562v-.589844c-.632812-.269531-1.3125-.410156-2-.410156-.332031-.003906-.664062.03125-.988281.101562-2.335938.46875-4.011719 2.519532-4.011719 4.898438v.589844c.632812.269531 1.3125.410156 2 .410156 1.574219 0 3.054688-.742188 4-2zm0 0" fill="#ff7956"/><path d="m12 49v-3.539062c-.609375.351562-1.296875.539062-2 .539062-.152344 0-.308594-.007812-.460938-.03125h-.007812c-.242188-.027344-.480469-.082031-.714844-.15625-.0625-.015625-.121094-.039062-.183594-.0625-.21875-.078125-.429687-.175781-.632812-.289062v3.539062zm0 0" fill="#f1cfa2"/><path d="m8.816406 45.8125c.234375.074219.472656.128906.714844.15625.15625.019531.3125.03125.46875.03125.703125 0 1.390625-.1875 2-.539062.300781-.175782.582031-.386719.828125-.632813.75-.75 1.171875-1.765625 1.171875-2.828125v-3c0-.035156 0-.066406-.011719-.101562-.042969.011718-.089843.019531-.136719.023437-.28125.054687-.566406.082031-.851562.078125-1.082031.003906-2.136719-.347656-3-1-.945312 1.257812-2.425781 2-4 2v2c-.003906 1.429688.761719 2.75 2 3.460938.203125.113281.414062.210937.632812.285156.058594.023437.121094.046875.183594.066406zm0 0" fill="#ffdaaa"/><path d="m10.878906 36.101562c-.152344.6875-.453125 1.335938-.878906 1.898438.863281.652344 1.917969 1.003906 3 1 .285156.003906.570312-.023438.851562-.078125.046876-.003906.09375-.011719.136719-.023437-.019531-1.289063-.539062-2.523438-1.449219-3.4375-.445312-.441407-.964843-.796876-1.539062-1.050782v.589844c0 .371094-.039062.738281-.121094 1.101562zm0 0" fill="#ffc477"/><path d="m10 38c.425781-.5625.726562-1.210938.878906-1.898438.082032-.363281.121094-.730468.121094-1.101562v-.589844c-.632812-.269531-1.3125-.410156-2-.410156-.332031-.003906-.664062.03125-.988281.101562-2.335938.46875-4.011719 2.519532-4.011719 4.898438v.589844c.632812.269531 1.3125.410156 2 .410156 1.574219 0 3.054688-.742188 4-2zm0 0" fill="#ffb655"/><path d="m51 48h-14c-.351562 0-.695312.09375-1 .269531v9.730469h17v-8c-.003906-1.101562-.898438-1.996094-2-2zm0 0" fill="#ffc477"/><path d="m37 48v10h-1v-9.730469c.304688-.175781.648438-.269531 1-.269531zm0 0" fill="#ffc477"/><path d="m18 48.269531v9.730469h-17v-8c.003906-1.101562.898438-1.996094 2-2h14c.351562 0 .695312.09375 1 .269531zm0 0" fill="#00ccb3"/><path d="m34 44h-14c-1.105469 0-2 .894531-2 2v12h18v-12c0-1.105469-.894531-2-2-2zm0 0" fill="#ff7956"/><path d="m18 48.269531v9.730469h-1v-10c.351562 0 .695312.09375 1 .269531zm0 0" fill="#0b7"/><path d="m36 48.269531v9.730469h1v-10zm0 0" fill="#ffb655"/><path d="m27 0c-6.628906 0-12 3.582031-12 8 0 3.964844 4.328125 7.242188 10 7.878906v5.121094l3.828125-5.101562c5.757813-.589844 10.171875-3.898438 10.171875-7.898438 0-4.417969-5.371094-8-12-8zm0 0" fill="#ffeb99"/><path d="m46 13c-4.417969 0-8 2.6875-8 6 0 3.058594 3.054688 5.578125 7 5.949219v4.050781l3-4.199219c3.449219-.667969 6-3.007812 6-5.800781 0-3.3125-3.582031-6-8-6zm0 0" fill="#ffc477"/><path d="m8 13c-4.417969 0-8 2.6875-8 6 0 2.800781 2.554688 5.136719 6 5.800781l3 4.199219v-4.050781c3.945312-.371094 7-2.890625 7-5.949219 0-3.3125-3.582031-6-8-6zm0 0" fill="#00ddc2"/><path d="m21 48h2v10h-2zm0 0" fill="#ff6243"/><path d="m31 48h2v10h-2zm0 0" fill="#ff6243"/><path d="m38 52h2v6h-2zm0 0" fill="#ffb655"/><path d="m48 52h2v6h-2zm0 0" fill="#ffb655"/><g fill="#0b7"><path d="m4 52h2v6h-2zm0 0"/><path d="m14 52h2v6h-2zm0 0"/></g></svg>