<svg height="512pt" viewBox="0 -3 512 512" width="512pt" xmlns="http://www.w3.org/2000/svg"><path d="m256 81.75c-5.945312 0-10.78125-5.9375-10.78125-13.234375s4.835938-13.234375 10.78125-13.234375h26.125c8.472656 0 15.34375-6.871094 15.34375-15.347656 0-8.472656-6.871094-15.34375-15.34375-15.34375h-10.78125v-9.246094c0-8.472656-6.871094-15.34375-15.34375-15.34375s-15.34375 6.871094-15.34375 15.34375v12.378906c-15.292969 6.472656-26.125 22.3125-26.125 40.792969 0 24.21875 18.601562 43.921875 41.46875 43.921875 5.945312 0 10.78125 5.9375 10.78125 13.234375 0 7.300781-4.835938 13.238281-10.78125 13.238281h-26.125c-8.472656 0-15.34375 6.867188-15.34375 15.34375 0 8.472656 6.871094 15.34375 15.34375 15.34375h10.78125v9.246094c0 8.476562 6.871094 15.34375 15.34375 15.34375s15.34375-6.867188 15.34375-15.34375v-12.375c15.292969-6.476562 26.125-22.316406 26.125-40.792969 0-24.222656-18.601562-43.925781-41.46875-43.925781zm0 0" fill="#ffe795"/><path d="m282.125 55.28125c8.472656 0 15.34375-6.871094 15.34375-15.34375 0-8.476562-6.871094-15.347656-15.34375-15.347656h-10.78125v-9.246094c0-8.472656-6.871094-15.34375-15.34375-15.34375v55.28125zm0 0" fill="#ffd330"/><path d="m271.34375 178.84375v-12.375c15.292969-6.476562 26.125-22.316406 26.125-40.796875 0-24.21875-18.601562-43.921875-41.46875-43.921875v30.6875c5.945312 0 10.78125 5.9375 10.78125 13.234375 0 7.300781-4.835938 13.238281-10.78125 13.238281v55.277344c8.472656 0 15.34375-6.871094 15.34375-15.34375zm0 0" fill="#ffd330"/><path d="m175.78125 506.78125h-160.4375c-8.472656 0-15.34375-6.867188-15.34375-15.34375v-113.582031c0-8.476563 6.871094-15.347657 15.34375-15.347657h160.4375c8.476562 0 15.34375 6.871094 15.34375 15.347657v113.582031c0 8.476562-6.867188 15.34375-15.34375 15.34375zm0 0" fill="#85eef2"/><path d="m496.65625 506.78125h-160.4375c-8.476562 0-15.34375-6.867188-15.34375-15.34375v-160.367188c0-8.476562 6.867188-15.347656 15.34375-15.347656h160.4375c8.472656 0 15.34375 6.871094 15.34375 15.347656v160.367188c0 8.476562-6.871094 15.34375-15.34375 15.34375zm0 0" fill="#ffd330"/><path d="m351.5625 506.78125h-191.125v-256.277344c0-8.472656 6.871094-15.34375 15.34375-15.34375h160.4375c8.472656 0 15.34375 6.871094 15.34375 15.34375zm0 0" fill="#fc5356"/><path d="m336.21875 235.160156h-80.21875v271.625h95.5625v-256.28125c0-8.472656-6.871094-15.34375-15.34375-15.34375zm0 0" fill="#f70b57"/></svg>